# xmcd CD database file
#
# Track frame offsets:
#	182
#	11120
#	24342
#	36090
#	47882
#	60535
#	71607
#	83650
#	96517
#	111840
#	122607
#	134562
#
# Disc length: 1985 seconds
#
# Revision: 1
# Processed by: cddbd v1.5.2PL0 Copyright (c) Steve Scherf et al.
# Submitted via: CDex 1.51
#
DISCID=a207bf0c
DTITLE=Sam and Dave - Soul  Man
DYEAR=1990
DGENRE=Blues
TTITLE0=Hold On I'm Coming
TTITLE1=I Thank You
TTITLE2=Said I Wasn't Gonna Tell Anybody
TTITLE3=If You Don't Know Like I Know
TTITLE4=You Got Me Hummin'
TTITLE5=Can't You Find Another Way
TTITLE6=Sooth Me
TTITLE7=Soul  Man
TTITLE8=When Something Is Wrong (With My Baby)
TTITLE9=Soul Sister, Brown Sugar
TTITLE10=You Don't Know What You Mean To Me
TTITLE11=Don't Pull Your Love
EXTD=YEAR: 1990
EXTT0=
EXTT1=
EXTT2=
EXTT3=
EXTT4=
EXTT5=
EXTT6=
EXTT7=
EXTT8=
EXTT9=
EXTT10=
EXTT11=
PLAYORDER=
